<svg xmlns="http://www.w3.org/2000/svg" viewBox="0 0 100 100" width="512" height="512"><g style="mix-blend-mode:multiply" opacity=".95"><path fill="#efbf3f" fill-rule="evenodd" transform="translate(2.88 20.10) scale(0.44) translate(0 0) rotate(-0.9 50 65)" d="M2.83 3.96C3.24 3.49 4.48 3.78 5.31 3.7C6.13 3.61 6.96 3.52 7.78 3.43C8.61 3.34 9.43 3.24 10.25 3.15C11.08 3.06 11.9 2.97 12.72 2.88C13.54 2.79 14.37 2.7 15.19 2.61C16.01 2.53 16.84 2.44 17.66 2.36C18.48 2.28 19.31 2.2 20.13 2.12C20.96 2.05 21.78 1.97 22.61 1.91C23.43 1.84 24.26 1.78 25.09 1.72C25.92 1.66 26.75 1.61 27.58 1.57C28.41 1.52 29.25 1.49 30.07 1.45C30.9 1.41 31.72 1.38 32.53 1.34C33.34 1.31 34.15 1.27 34.95 1.24C35.75 1.21 36.54 1.17 37.33 1.14C38.12 1.11 38.91 1.08 39.69 1.05C40.48 1.03 41.26 1 42.04 0.97C42.82 0.95 43.61 0.92 44.39 0.9C45.17 0.88 45.95 0.86 46.74 0.84C47.53 0.82 48.31 0.81 49.11 0.79C49.9 0.78 50.7 0.77 51.5 0.76C52.3 0.75 53.11 0.74 53.93 0.74C54.75 0.73 55.58 0.73 56.4 0.73C57.23 0.73 58.07 0.74 58.89 0.74C59.72 0.74 60.54 0.74 61.36 0.74C62.18 0.75 63 0.75 63.82 0.75C64.63 0.76 65.44 0.76 66.25 0.77C67.07 0.77 67.87 0.78 68.68 0.79C69.49 0.8 70.3 0.81 71.11 0.82C71.92 0.83 72.73 0.85 73.54 0.86C74.35 0.88 75.16 0.89 75.97 0.91C76.78 0.93 77.6 0.96 78.41 0.98C79.23 1.01 80.05 1.03 80.87 1.06C81.69 1.09 82.52 1.12 83.35 1.16C84.18 1.2 85.01 1.24 85.86 1.29C86.7 1.34 87.56 1.4 88.43 1.47C89.29 1.54 90.17 1.62 91.05 1.7C91.93 1.78 92.82 1.88 93.71 1.97C94.6 2.07 95.77 1.96 96.39 2.28C97.02 2.6 97.28 3.21 97.45 3.9C97.63 4.58 97.44 5.55 97.44 6.37C97.44 7.2 97.44 8.02 97.44 8.85C97.45 9.67 97.46 10.49 97.47 11.32C97.47 12.14 97.49 12.96 97.5 13.78C97.51 14.61 97.52 15.43 97.53 16.25C97.54 17.08 97.55 17.9 97.56 18.73C97.57 19.55 97.58 20.38 97.58 21.21C97.59 22.04 97.59 22.86 97.59 23.69C97.58 24.52 97.58 25.36 97.57 26.19C97.56 27.02 97.54 27.85 97.52 28.69C97.5 29.53 97.47 30.36 97.45 31.21C97.42 32.05 97.4 32.89 97.37 33.74C97.35 34.58 97.32 35.43 97.3 36.28C97.27 37.12 97.41 38.17 97.22 38.83C97.03 39.48 96.74 40.03 96.14 40.23C95.54 40.43 94.47 40.09 93.63 40.04C92.79 39.99 91.95 39.95 91.11 39.93C90.27 39.9 89.43 39.88 88.6 39.87C87.76 39.86 86.92 39.86 86.09 39.87C85.25 39.88 84.42 39.9 83.58 39.93C82.75 39.96 81.92 40.01 81.08 40.07C80.25 40.14 79.42 40.21 78.58 40.3C77.75 40.39 76.5 40.15 76.09 40.6C75.68 41.05 76.09 42.2 76.1 43C76.11 43.8 76.12 44.61 76.13 45.41C76.14 46.22 76.15 47.03 76.16 47.83C76.18 48.64 76.19 49.45 76.2 50.26C76.21 51.08 76.22 51.89 76.23 52.71C76.24 53.53 76.25 54.35 76.26 55.17C76.27 56 76.28 56.83 76.29 57.67C76.29 58.51 76.29 59.35 76.28 60.2C76.27 61.04 76.25 61.9 76.23 62.75C76.21 63.61 76.18 64.47 76.14 65.34C76.11 66.2 76.07 67.07 76.03 67.94C75.99 68.81 75.94 69.68 75.9 70.55C75.86 71.42 75.81 72.29 75.77 73.17C75.72 74.04 75.68 74.91 75.64 75.78C75.6 76.65 75.56 77.51 75.52 78.38C75.49 79.24 75.45 80.11 75.43 80.96C75.4 81.82 75.38 82.68 75.37 83.53C75.36 84.37 75.36 85.22 75.36 86.06C75.37 86.9 75.38 87.73 75.4 88.56C75.43 89.39 75.46 90.22 75.5 91.05C75.54 91.88 75.59 92.71 75.64 93.53C75.7 94.36 75.76 95.19 75.82 96.01C75.88 96.84 75.95 97.66 76.02 98.49C76.08 99.31 76.16 100.13 76.23 100.96C76.3 101.78 76.37 102.61 76.43 103.43C76.5 104.26 76.57 105.08 76.63 105.91C76.69 106.73 76.75 107.56 76.81 108.39C76.86 109.21 76.91 110.04 76.95 110.87C76.99 111.7 77.02 112.53 77.05 113.36C77.07 114.2 77.08 115.04 77.09 115.86C77.1 116.69 77.1 117.51 77.1 118.33C77.1 119.14 77.1 119.95 77.1 120.75C77.1 121.55 77.09 122.35 77.08 123.14C77.08 123.94 77.07 124.72 77.06 125.51C77.05 126.3 77.37 127.36 77.03 127.87C76.69 128.38 75.76 128.41 75.01 128.58C74.27 128.76 73.39 128.81 72.58 128.91C71.77 129.01 70.97 129.11 70.15 129.2C69.34 129.28 68.53 129.36 67.72 129.44C66.91 129.51 66.1 129.58 65.28 129.64C64.47 129.7 63.65 129.75 62.83 129.8C62.01 129.85 61.19 129.89 60.37 129.92C59.54 129.96 58.71 129.98 57.88 130.01C57.05 130.03 56.21 130.04 55.38 130.06C54.54 130.07 53.7 130.08 52.87 130.09C52.03 130.09 51.19 130.1 50.35 130.1C49.51 130.1 48.67 130.09 47.83 130.08C46.99 130.07 46.15 130.06 45.31 130.04C44.46 130.03 43.62 130.01 42.78 129.98C41.94 129.96 41.1 129.93 40.26 129.89C39.42 129.86 38.58 129.82 37.74 129.78C36.9 129.73 36.07 129.69 35.23 129.63C34.39 129.58 33.56 129.52 32.72 129.46C31.89 129.39 31.05 129.32 30.22 129.25C29.39 129.17 28.55 129.09 27.73 129C26.9 128.92 25.85 129.03 25.26 128.74C24.68 128.44 24.4 127.87 24.22 127.21C24.05 126.55 24.22 125.59 24.22 124.78C24.23 123.96 24.23 123.15 24.23 122.33C24.23 121.51 24.23 120.69 24.24 119.87C24.24 119.05 24.25 118.23 24.25 117.4C24.26 116.57 24.27 115.74 24.28 114.91C24.29 114.07 24.29 113.22 24.3 112.36C24.3 111.5 24.31 110.63 24.31 109.76C24.31 108.88 24.31 107.99 24.31 107.1C24.31 106.21 24.31 105.31 24.31 104.41C24.31 103.51 24.31 102.61 24.3 101.7C24.3 100.8 24.3 99.89 24.29 98.99C24.29 98.08 24.29 97.17 24.29 96.27C24.29 95.37 24.28 94.47 24.28 93.58C24.28 92.69 24.28 91.8 24.29 90.92C24.29 90.04 24.29 89.16 24.3 88.3C24.3 87.43 24.31 86.58 24.31 85.74C24.32 84.9 24.33 84.07 24.33 83.25C24.33 82.43 24.32 81.63 24.31 80.84C24.3 80.04 24.28 79.26 24.26 78.49C24.24 77.71 24.21 76.94 24.18 76.18C24.16 75.42 24.12 74.66 24.09 73.9C24.06 73.15 24.02 72.4 23.99 71.65C23.96 70.89 23.92 70.14 23.89 69.39C23.85 68.63 23.82 67.88 23.79 67.11C23.77 66.35 23.74 65.59 23.72 64.81C23.69 64.04 23.67 63.26 23.66 62.46C23.65 61.67 23.64 60.87 23.64 60.06C23.64 59.24 23.64 58.42 23.66 57.58C23.68 56.74 23.7 55.88 23.73 55.02C23.77 54.16 23.81 53.28 23.86 52.4C23.91 51.52 23.96 50.62 24.02 49.73C24.08 48.83 24.14 47.93 24.21 47.02C24.28 46.12 24.35 45.21 24.42 44.3C24.49 43.39 24.91 42.14 24.63 41.57C24.34 40.99 23.42 40.98 22.69 40.84C21.96 40.7 21.06 40.74 20.25 40.72C19.44 40.7 18.62 40.71 17.81 40.72C16.99 40.74 16.18 40.78 15.36 40.83C14.55 40.88 13.73 40.95 12.92 41.02C12.1 41.09 11.28 41.18 10.46 41.27C9.64 41.36 8.82 41.45 8 41.56C7.18 41.66 6.35 41.76 5.53 41.87C4.7 41.98 3.6 42.34 3.04 42.2C2.48 42.05 2.26 41.58 2.16 41C2.06 40.42 2.34 39.48 2.43 38.71C2.51 37.94 2.59 37.17 2.66 36.39C2.73 35.61 2.8 34.82 2.84 34.03C2.89 33.23 2.93 32.43 2.96 31.61C2.98 30.8 2.98 29.96 2.99 29.13C2.99 28.3 2.98 27.46 2.98 26.63C2.98 25.79 2.98 24.95 2.97 24.11C2.97 23.27 2.96 22.43 2.96 21.59C2.95 20.75 2.94 19.91 2.94 19.07C2.93 18.23 2.92 17.39 2.92 16.55C2.91 15.71 2.9 14.87 2.89 14.03C2.89 13.19 2.88 12.35 2.87 11.51C2.87 10.67 2.86 9.83 2.85 8.99C2.85 8.15 2.84 7.31 2.84 6.47C2.83 5.63 2.42 4.42 2.83 3.96ZM45.13 117.56a0.57 0.73 0 1 0 1.14 0a0.57 0.73 0 1 0 -1.14 0ZM48.35 31.29a0.72 0.86 0 1 0 1.45 0a0.72 0.86 0 1 0 -1.45 0ZM30.32 14.32a0.51 0.41 0 1 0 1.03 0a0.51 0.41 0 1 0 -1.03 0ZM62.01 65.89a0.71 1.02 0 1 0 1.41 0a0.71 1.02 0 1 0 -1.41 0ZM44.39 22.46a0.59 0.54 0 1 0 1.19 0a0.59 0.54 0 1 0 -1.19 0ZM62.21 77.8a0.75 0.67 0 1 0 1.5 0a0.75 0.67 0 1 0 -1.5 0ZM76.45 24.68a0.57 0.63 0 1 0 1.13 0a0.57 0.63 0 1 0 -1.13 0ZM53.64 94.37a0.88 0.73 0 1 0 1.75 0a0.88 0.73 0 1 0 -1.75 0ZM29.74 86.09a1.1 0.83 0 1 0 2.19 0a1.1 0.83 0 1 0 -2.19 0ZM46.83 18.85a0.49 0.68 0 1 0 0.97 0a0.49 0.68 0 1 0 -0.97 0ZM65.98 8.14a0.46 0.55 0 1 0 0.93 0a0.46 0.55 0 1 0 -0.93 0ZM40.12 77.99a0.38 0.35 0 1 0 0.76 0a0.38 0.35 0 1 0 -0.76 0ZM47.57 90.33a0.37 0.52 0 1 0 0.74 0a0.37 0.52 0 1 0 -0.74 0ZM66.52 12.35a0.4 0.57 0 1 0 0.79 0a0.4 0.57 0 1 0 -0.79 0ZM56.88 62.49a0.52 0.45 0 1 0 1.04 0a0.52 0.45 0 1 0 -1.04 0ZM59.2 93.63a0.79 0.44 0 1 0 1.58 0a0.79 0.44 0 1 0 -1.58 0ZM46.27 62.23a0.7 0.5 0 1 0 1.4 0a0.7 0.5 0 1 0 -1.4 0ZM20.4 38.47a0.51 0.6 0 1 0 1.01 0a0.51 0.6 0 1 0 -1.01 0ZM38.72 16.57a0.7 0.41 0 1 0 1.4 0a0.7 0.41 0 1 0 -1.4 0ZM63.27 103.56a1.09 1.18 0 1 0 2.17 0a1.09 1.18 0 1 0 -2.17 0ZM62.19 25.55a0.47 0.61 0 1 0 0.94 0a0.47 0.61 0 1 0 -0.94 0ZM60.1 122.04a0.41 0.36 0 1 0 0.83 0a0.41 0.36 0 1 0 -0.83 0ZM63.79 127.03a1 0.95 0 1 0 2 0a1 0.95 0 1 0 -2 0ZM77.67 34.33a0.42 0.46 0 1 0 0.83 0a0.42 0.46 0 1 0 -0.83 0ZM29.87 72.12a1.08 1.24 0 1 0 2.16 0a1.08 1.24 0 1 0 -2.16 0ZM6.64 22.57a0.31 0.2 0 1 0 0.61 0a0.31 0.2 0 1 0 -0.61 0ZM45.91 111.57a0.54 0.45 0 1 0 1.08 0a0.54 0.45 0 1 0 -1.08 0ZM58.46 29.6a0.47 0.53 0 1 0 0.94 0a0.47 0.53 0 1 0 -0.94 0ZM65.5 39.42a1.02 1.44 0 1 0 2.04 0a1.02 1.44 0 1 0 -2.04 0ZM17.6 31.16a0.44 0.4 0 1 0 0.87 0a0.44 0.4 0 1 0 -0.87 0ZM69.1 107.9a0.38 0.32 0 1 0 0.75 0a0.38 0.32 0 1 0 -0.75 0Z"/><path fill="#efbf3f" fill-rule="evenodd" transform="translate(6.88 20.10) scale(0.44) translate(106 0) rotate(0.8 50 65)" d="M2.85 2.29C3.27 1.87 4.53 2.23 5.37 2.19C6.22 2.15 7.06 2.1 7.9 2.05C8.75 2 9.6 1.95 10.45 1.89C11.29 1.83 12.14 1.77 12.99 1.7C13.84 1.64 14.69 1.58 15.54 1.51C16.39 1.45 17.24 1.38 18.09 1.32C18.94 1.26 19.79 1.2 20.64 1.14C21.48 1.08 22.33 1.02 23.18 0.97C24.02 0.92 24.87 0.88 25.71 0.84C26.55 0.8 27.39 0.77 28.22 0.74C29.06 0.72 29.9 0.7 30.72 0.69C31.55 0.69 32.36 0.69 33.17 0.7C33.97 0.72 34.77 0.74 35.56 0.77C36.35 0.8 37.13 0.84 37.91 0.88C38.68 0.92 39.46 0.96 40.23 1.01C41 1.06 41.76 1.11 42.53 1.17C43.3 1.22 44.06 1.27 44.83 1.32C45.59 1.37 46.36 1.42 47.13 1.47C47.91 1.52 48.68 1.56 49.46 1.6C50.24 1.64 51.03 1.67 51.82 1.7C52.61 1.72 53.41 1.74 54.22 1.75C55.04 1.75 55.86 1.75 56.69 1.74C57.52 1.73 58.36 1.71 59.2 1.69C60.05 1.67 60.9 1.63 61.75 1.61C62.6 1.6 63.46 1.59 64.32 1.59C65.18 1.59 66.05 1.61 66.91 1.64C67.77 1.66 68.64 1.71 69.51 1.76C70.37 1.82 71.24 1.9 72.1 1.99C72.96 2.08 73.82 2.19 74.67 2.32C75.52 2.46 76.37 2.61 77.21 2.78C78.05 2.96 78.89 3.15 79.71 3.38C80.53 3.6 81.34 3.85 82.14 4.13C82.94 4.41 83.72 4.72 84.48 5.05C85.24 5.39 85.99 5.76 86.71 6.16C87.44 6.57 88.15 7.01 88.83 7.48C89.51 7.95 90.17 8.45 90.8 8.99C91.42 9.53 92.03 10.1 92.6 10.69C93.17 11.29 93.71 11.92 94.21 12.57C94.72 13.22 95.19 13.9 95.62 14.59C96.06 15.29 96.45 16.01 96.82 16.74C97.18 17.48 97.51 18.23 97.81 18.99C98.11 19.75 98.37 20.53 98.61 21.32C98.84 22.1 99.04 22.9 99.22 23.7C99.4 24.51 99.55 25.32 99.68 26.14C99.81 26.96 99.91 27.79 99.99 28.62C100.08 29.45 100.14 30.29 100.18 31.12C100.22 31.96 100.23 32.8 100.23 33.63C100.23 34.47 100.21 35.3 100.18 36.14C100.14 36.98 100.09 37.81 100.01 38.65C99.94 39.49 99.85 40.32 99.74 41.16C99.63 41.99 99.51 42.83 99.36 43.67C99.21 44.5 99.04 45.34 98.85 46.17C98.66 47 98.45 47.84 98.21 48.66C97.98 49.49 97.72 50.31 97.44 51.13C97.16 51.94 96.85 52.75 96.52 53.54C96.18 54.33 95.82 55.12 95.42 55.87C95.03 56.63 94.61 57.37 94.15 58.08C93.69 58.79 93.2 59.47 92.67 60.11C92.14 60.76 91.57 61.37 90.96 61.95C90.36 62.52 89.72 63.06 89.04 63.56C88.37 64.05 87.6 64.51 86.93 64.93C86.25 65.34 84.93 65.69 84.97 66.04C85.01 66.39 86.47 66.67 87.18 67.02C87.88 67.38 88.56 67.75 89.2 68.16C89.84 68.57 90.45 69 91.02 69.47C91.6 69.94 92.14 70.44 92.66 70.97C93.17 71.5 93.65 72.06 94.11 72.64C94.56 73.23 94.99 73.85 95.39 74.49C95.79 75.13 96.16 75.8 96.5 76.49C96.85 77.18 97.17 77.9 97.47 78.63C97.76 79.35 98.04 80.11 98.29 80.87C98.54 81.63 98.76 82.41 98.97 83.2C99.18 83.99 99.37 84.8 99.53 85.6C99.7 86.41 99.84 87.22 99.95 88.03C100.07 88.85 100.16 89.66 100.23 90.48C100.31 91.29 100.35 92.1 100.38 92.92C100.42 93.73 100.42 94.55 100.42 95.36C100.41 96.17 100.38 96.99 100.34 97.8C100.3 98.61 100.25 99.42 100.18 100.23C100.12 101.04 100.04 101.85 99.94 102.66C99.85 103.47 99.73 104.28 99.59 105.09C99.45 105.89 99.29 106.7 99.1 107.5C98.91 108.3 98.7 109.1 98.46 109.89C98.21 110.68 97.94 111.47 97.64 112.24C97.33 113.01 97 113.78 96.62 114.53C96.24 115.27 95.83 116.01 95.38 116.72C94.93 117.42 94.43 118.11 93.9 118.77C93.37 119.42 92.8 120.05 92.2 120.65C91.59 121.24 90.95 121.81 90.28 122.33C89.61 122.86 88.91 123.35 88.19 123.8C87.48 124.25 86.73 124.67 85.97 125.05C85.22 125.43 84.44 125.78 83.67 126.09C82.89 126.41 82.11 126.7 81.33 126.96C80.54 127.23 79.76 127.46 78.97 127.68C78.18 127.89 77.39 128.08 76.59 128.25C75.8 128.42 75.01 128.56 74.21 128.7C73.42 128.83 72.62 128.93 71.83 129.03C71.03 129.13 70.23 129.21 69.43 129.27C68.64 129.34 67.84 129.39 67.03 129.44C66.23 129.48 65.43 129.51 64.62 129.53C63.81 129.56 63.01 129.57 62.19 129.57C61.38 129.58 60.57 129.56 59.75 129.55C58.93 129.54 58.1 129.52 57.28 129.51C56.45 129.51 55.62 129.49 54.79 129.49C53.97 129.49 53.16 129.5 52.35 129.52C51.54 129.53 50.73 129.55 49.93 129.57C49.13 129.59 48.33 129.62 47.53 129.65C46.73 129.68 45.94 129.71 45.14 129.74C44.35 129.77 43.56 129.8 42.76 129.84C41.97 129.87 41.17 129.9 40.38 129.93C39.58 129.96 38.79 129.99 37.99 130.02C37.19 130.04 36.38 130.07 35.58 130.08C34.77 130.1 33.96 130.11 33.15 130.12C32.33 130.13 31.51 130.13 30.69 130.12C29.86 130.12 29.03 130.1 28.19 130.08C27.35 130.06 26.51 130.04 25.67 130.01C24.83 129.98 23.98 129.94 23.14 129.9C22.29 129.86 21.44 129.81 20.59 129.77C19.74 129.72 18.88 129.67 18.03 129.62C17.18 129.57 16.32 129.51 15.47 129.46C14.61 129.41 13.76 129.35 12.9 129.3C12.05 129.25 11.19 129.2 10.34 129.15C9.49 129.1 8.64 129.05 7.79 129C6.94 128.96 6.09 128.92 5.25 128.88C4.4 128.84 3.22 129.15 2.72 128.78C2.22 128.42 2.31 127.49 2.24 126.71C2.17 125.93 2.27 124.99 2.28 124.13C2.3 123.27 2.31 122.41 2.32 121.55C2.33 120.7 2.34 119.84 2.35 118.99C2.36 118.14 2.37 117.3 2.37 116.45C2.38 115.61 2.38 114.77 2.38 113.94C2.38 113.1 2.38 112.28 2.37 111.46C2.36 110.64 2.35 109.83 2.33 109.03C2.32 108.22 2.3 107.43 2.27 106.64C2.25 105.84 2.23 105.06 2.2 104.27C2.18 103.49 2.15 102.7 2.12 101.92C2.09 101.14 2.06 100.36 2.03 99.58C2.01 98.8 1.98 98.03 1.95 97.24C1.92 96.46 1.9 95.68 1.87 94.89C1.85 94.1 1.82 93.31 1.8 92.52C1.78 91.72 1.77 90.92 1.75 90.11C1.74 89.3 1.73 88.48 1.73 87.66C1.72 86.84 1.72 86 1.72 85.17C1.73 84.33 1.73 83.5 1.74 82.66C1.75 81.83 1.76 80.99 1.77 80.16C1.78 79.32 1.8 78.48 1.81 77.65C1.82 76.81 1.84 75.97 1.86 75.14C1.87 74.3 1.89 73.46 1.91 72.63C1.92 71.79 1.94 70.95 1.96 70.11C1.97 69.28 1.99 68.44 2.01 67.6C2.02 66.77 2.04 65.93 2.05 65.09C2.06 64.26 2.07 63.42 2.08 62.59C2.09 61.75 2.1 60.92 2.11 60.08C2.11 59.25 2.11 58.42 2.11 57.58C2.12 56.74 2.12 55.9 2.13 55.05C2.14 54.19 2.15 53.33 2.17 52.46C2.18 51.59 2.2 50.71 2.22 49.83C2.24 48.95 2.27 48.06 2.29 47.18C2.32 46.29 2.34 45.39 2.37 44.5C2.4 43.61 2.42 42.71 2.45 41.82C2.48 40.92 2.5 40.03 2.53 39.14C2.55 38.25 2.58 37.36 2.6 36.47C2.62 35.59 2.64 34.71 2.66 33.84C2.68 32.96 2.69 32.1 2.7 31.24C2.72 30.38 2.72 29.53 2.73 28.69C2.73 27.84 2.73 27.01 2.73 26.19C2.73 25.37 2.73 24.55 2.74 23.74C2.74 22.93 2.74 22.13 2.75 21.33C2.75 20.53 2.75 19.74 2.76 18.95C2.76 18.16 2.77 17.37 2.77 16.59C2.78 15.8 2.79 15.02 2.79 14.23C2.8 13.45 2.8 12.67 2.81 11.88C2.81 11.09 2.82 10.31 2.82 9.52C2.83 8.73 2.83 7.94 2.84 7.14C2.84 6.34 2.84 5.54 2.85 4.73C2.85 3.93 2.43 2.72 2.85 2.29ZM45.94 31.14C46.35 30.73 47.56 31.16 48.38 31.17C49.2 31.17 50.01 31.18 50.84 31.19C51.66 31.2 52.48 31.2 53.31 31.21C54.14 31.21 54.97 31.22 55.81 31.22C56.65 31.22 57.5 31.16 58.35 31.22C59.19 31.28 60.07 31.34 60.86 31.59C61.66 31.83 62.47 32.2 63.1 32.7C63.74 33.19 64.27 33.86 64.67 34.55C65.07 35.23 65.32 36.02 65.52 36.79C65.72 37.55 65.81 38.36 65.87 39.15C65.94 39.94 65.95 40.74 65.91 41.53C65.86 42.32 65.8 43.12 65.62 43.89C65.45 44.65 65.23 45.44 64.85 46.12C64.47 46.81 63.97 47.49 63.35 47.99C62.73 48.5 61.93 48.89 61.13 49.15C60.34 49.41 59.45 49.49 58.6 49.56C57.76 49.63 56.91 49.56 56.06 49.57C55.21 49.58 54.37 49.59 53.52 49.61C52.68 49.63 51.83 49.65 50.98 49.68C50.13 49.71 49.28 49.75 48.43 49.78C47.58 49.82 46.34 50.24 45.88 49.91C45.41 49.57 45.69 48.52 45.67 47.77C45.64 47.03 45.7 46.2 45.71 45.42C45.73 44.64 45.74 43.86 45.76 43.09C45.78 42.31 45.79 41.53 45.81 40.75C45.82 39.96 45.84 39.18 45.85 38.39C45.87 37.6 45.88 36.81 45.89 36.02C45.9 35.22 45.91 34.41 45.92 33.6C45.93 32.79 45.53 31.54 45.94 31.14ZM46.26 82.04C46.66 81.63 47.88 82.09 48.7 82.11C49.51 82.14 50.33 82.16 51.15 82.18C51.97 82.2 52.79 82.22 53.62 82.23C54.45 82.24 55.29 82.25 56.13 82.25C56.97 82.26 57.82 82.24 58.66 82.25C59.5 82.26 60.35 82.21 61.17 82.3C62 82.39 62.84 82.52 63.62 82.79C64.4 83.06 65.17 83.44 65.83 83.91C66.5 84.39 67.11 84.99 67.61 85.65C68.11 86.3 68.51 87.06 68.83 87.82C69.16 88.59 69.38 89.42 69.54 90.24C69.71 91.06 69.79 91.9 69.82 92.74C69.85 93.58 69.83 94.43 69.73 95.27C69.63 96.1 69.49 96.95 69.24 97.75C69 98.55 68.68 99.36 68.27 100.08C67.86 100.8 67.34 101.51 66.76 102.08C66.17 102.66 65.48 103.16 64.76 103.53C64.05 103.91 63.25 104.16 62.46 104.34C61.66 104.51 60.83 104.52 60.01 104.56C59.18 104.6 58.33 104.58 57.49 104.58C56.65 104.58 55.81 104.58 54.96 104.57C54.12 104.56 53.28 104.55 52.44 104.54C51.6 104.53 50.76 104.51 49.93 104.5C49.09 104.48 47.98 104.75 47.42 104.44C46.86 104.14 46.71 103.4 46.56 102.67C46.41 101.94 46.52 100.93 46.51 100.06C46.49 99.19 46.47 98.32 46.45 97.46C46.43 96.59 46.41 95.72 46.4 94.86C46.38 93.99 46.36 93.13 46.35 92.27C46.34 91.41 46.33 90.55 46.32 89.69C46.31 88.83 46.3 87.98 46.3 87.13C46.29 86.28 46.3 85.44 46.29 84.59C46.29 83.74 45.86 82.45 46.26 82.04ZM43.24 8.01a0.69 0.47 0 1 0 1.37 0a0.69 0.47 0 1 0 -1.37 0ZM67.42 20.76a0.39 0.55 0 1 0 0.78 0a0.39 0.55 0 1 0 -0.78 0ZM85.64 51.45a0.73 0.89 0 1 0 1.46 0a0.73 0.89 0 1 0 -1.46 0ZM87.44 55.27a0.62 0.77 0 1 0 1.23 0a0.62 0.77 0 1 0 -1.23 0ZM85.43 42.63a0.87 0.59 0 1 0 1.74 0a0.87 0.59 0 1 0 -1.74 0ZM19.95 119.18a0.7 0.81 0 1 0 1.39 0a0.7 0.81 0 1 0 -1.39 0ZM52.3 58.69a0.8 0.89 0 1 0 1.59 0a0.8 0.89 0 1 0 -1.59 0ZM2.93 70.97a1.09 1.55 0 1 0 2.18 0a1.09 1.55 0 1 0 -2.18 0ZM5 12.88a0.34 0.44 0 1 0 0.68 0a0.34 0.44 0 1 0 -0.68 0ZM10.53 32.77a0.99 0.85 0 1 0 1.99 0a0.99 0.85 0 1 0 -1.99 0ZM36.65 18.87a0.59 0.42 0 1 0 1.18 0a0.59 0.42 0 1 0 -1.18 0ZM28.95 63.36a0.47 0.53 0 1 0 0.95 0a0.47 0.53 0 1 0 -0.95 0ZM4.59 18.44a0.34 0.3 0 1 0 0.69 0a0.34 0.3 0 1 0 -0.69 0ZM12.58 81.19a0.89 1.21 0 1 0 1.77 0a0.89 1.21 0 1 0 -1.77 0ZM35.94 49.89a1.05 1.02 0 1 0 2.1 0a1.05 1.02 0 1 0 -2.1 0ZM75.43 92.73a0.81 0.6 0 1 0 1.61 0a0.81 0.6 0 1 0 -1.61 0ZM70.41 63.45a0.67 0.74 0 1 0 1.35 0a0.67 0.74 0 1 0 -1.35 0ZM71.73 30.13a0.5 0.28 0 1 0 0.99 0a0.5 0.28 0 1 0 -0.99 0ZM30.74 108.8a0.43 0.61 0 1 0 0.85 0a0.43 0.61 0 1 0 -0.85 0ZM54.11 114.69a0.6 0.79 0 1 0 1.21 0a0.6 0.79 0 1 0 -1.21 0ZM81.45 62.31a0.62 0.7 0 1 0 1.23 0a0.62 0.7 0 1 0 -1.23 0ZM19.09 97.46a0.46 0.3 0 1 0 0.92 0a0.46 0.3 0 1 0 -0.92 0ZM77.05 80.96a1.05 1.41 0 1 0 2.1 0a1.05 1.41 0 1 0 -2.1 0ZM7.77 63.55a0.64 0.38 0 1 0 1.28 0a0.64 0.38 0 1 0 -1.28 0ZM18.62 91.91a0.5 0.5 0 1 0 1 0a0.5 0.5 0 1 0 -1 0ZM29.82 39.9a0.49 0.55 0 1 0 0.97 0a0.49 0.55 0 1 0 -0.97 0ZM32.65 37.46a0.72 0.52 0 1 0 1.44 0a0.72 0.52 0 1 0 -1.44 0ZM16.88 20.15a0.31 0.35 0 1 0 0.62 0a0.31 0.35 0 1 0 -0.62 0ZM76.11 77.49a0.6 0.55 0 1 0 1.21 0a0.6 0.55 0 1 0 -1.21 0ZM94.66 39.75a0.6 0.78 0 1 0 1.21 0a0.6 0.78 0 1 0 -1.21 0ZM41.04 18.28a0.36 0.35 0 1 0 0.73 0a0.36 0.35 0 1 0 -0.73 0Z"/></g><path fill="#de5b46" fill-rule="evenodd" transform="translate(4.68 21.40) scale(0.44) translate(0 0) rotate(-0.6 50 65)" d="M1.21 3.22C1.63 2.77 2.9 3.04 3.74 2.94C4.59 2.84 5.44 2.73 6.3 2.62C7.15 2.52 8.01 2.4 8.87 2.29C9.73 2.18 10.59 2.06 11.45 1.95C12.32 1.83 13.18 1.71 14.05 1.6C14.91 1.49 15.77 1.37 16.64 1.27C17.5 1.16 18.36 1.05 19.22 0.95C20.08 0.85 20.94 0.76 21.79 0.67C22.65 0.58 23.5 0.5 24.35 0.43C25.2 0.36 26.04 0.3 26.88 0.25C27.72 0.2 28.55 0.16 29.39 0.12C30.23 0.09 31.08 0.06 31.93 0.04C32.79 0.01 33.65 0 34.52 -0.02C35.38 -0.03 36.26 -0.04 37.13 -0.05C38.01 -0.06 38.89 -0.06 39.77 -0.06C40.65 -0.06 41.53 -0.06 42.42 -0.06C43.3 -0.06 44.19 -0.05 45.07 -0.04C45.95 -0.04 46.84 -0.03 47.72 -0.02C48.6 -0.01 49.48 0 50.35 0.01C51.22 0.01 52.09 0.02 52.96 0.03C53.82 0.04 54.68 0.05 55.53 0.05C56.38 0.06 57.23 0.06 58.06 0.06C58.9 0.07 59.72 0.07 60.53 0.09C61.35 0.11 62.15 0.14 62.94 0.18C63.73 0.21 64.52 0.26 65.3 0.31C66.08 0.35 66.85 0.41 67.62 0.47C68.39 0.53 69.15 0.59 69.91 0.66C70.68 0.73 71.44 0.8 72.2 0.87C72.96 0.94 73.72 1.01 74.49 1.08C75.25 1.15 76.02 1.22 76.79 1.29C77.56 1.36 78.34 1.43 79.12 1.5C79.91 1.56 80.7 1.62 81.5 1.68C82.3 1.74 83.11 1.79 83.93 1.83C84.76 1.88 85.59 1.92 86.43 1.95C87.26 1.98 88.1 2 88.94 2.01C89.78 2.03 90.61 2.04 91.45 2.04C92.29 2.05 93.13 2.04 93.98 2.04C94.82 2.04 95.92 1.78 96.5 2.03C97.09 2.28 97.32 2.86 97.48 3.54C97.64 4.21 97.45 5.23 97.43 6.07C97.42 6.92 97.41 7.77 97.4 8.62C97.39 9.47 97.37 10.32 97.36 11.17C97.35 12.02 97.35 12.87 97.34 13.73C97.33 14.58 97.32 15.43 97.31 16.28C97.3 17.13 97.29 17.98 97.28 18.83C97.27 19.68 97.26 20.53 97.25 21.37C97.24 22.22 97.23 23.07 97.21 23.91C97.2 24.75 97.18 25.59 97.16 26.43C97.15 27.27 97.12 28.11 97.11 28.94C97.09 29.78 97.07 30.61 97.05 31.44C97.04 32.26 97.03 33.09 97.02 33.91C97.02 34.74 97.01 35.56 97.01 36.38C97.01 37.2 97.18 38.21 97.02 38.84C96.85 39.46 96.59 39.97 96.01 40.14C95.43 40.31 94.36 39.93 93.54 39.85C92.71 39.77 91.88 39.7 91.06 39.64C90.23 39.59 89.4 39.55 88.57 39.53C87.74 39.5 86.9 39.49 86.07 39.5C85.24 39.5 84.4 39.52 83.57 39.54C82.74 39.56 81.92 39.59 81.09 39.62C80.27 39.66 79.45 39.71 78.63 39.76C77.81 39.82 76.58 39.52 76.19 39.97C75.8 40.41 76.25 41.61 76.28 42.44C76.32 43.26 76.36 44.09 76.4 44.92C76.44 45.75 76.47 46.58 76.51 47.41C76.55 48.24 76.58 49.07 76.61 49.9C76.64 50.73 76.67 51.56 76.7 52.39C76.72 53.22 76.75 54.06 76.76 54.89C76.78 55.72 76.79 56.55 76.8 57.39C76.81 58.23 76.81 59.06 76.8 59.9C76.79 60.74 76.78 61.58 76.76 62.42C76.74 63.27 76.72 64.11 76.69 64.96C76.66 65.8 76.63 66.65 76.6 67.5C76.56 68.34 76.53 69.19 76.49 70.04C76.45 70.89 76.42 71.74 76.38 72.59C76.34 73.43 76.31 74.28 76.27 75.13C76.24 75.98 76.21 76.83 76.18 77.67C76.15 78.52 76.13 79.36 76.11 80.21C76.09 81.05 76.07 81.89 76.06 82.73C76.05 83.57 76.05 84.41 76.06 85.25C76.06 86.08 76.07 86.92 76.09 87.74C76.11 88.57 76.13 89.39 76.15 90.21C76.17 91.03 76.2 91.84 76.23 92.65C76.26 93.47 76.3 94.27 76.33 95.08C76.36 95.88 76.4 96.69 76.44 97.49C76.48 98.29 76.51 99.09 76.55 99.89C76.59 100.7 76.63 101.5 76.67 102.3C76.7 103.1 76.74 103.9 76.78 104.71C76.81 105.51 76.84 106.32 76.87 107.13C76.9 107.94 76.93 108.75 76.96 109.57C76.98 110.39 77 111.21 77.02 112.03C77.03 112.86 77.04 113.69 77.05 114.53C77.06 115.36 77.06 116.19 77.07 117.03C77.07 117.86 77.07 118.69 77.07 119.52C77.07 120.36 77.07 121.19 77.07 122.02C77.06 122.85 77.06 123.68 77.05 124.52C77.05 125.35 77.39 126.46 77.04 127.01C76.69 127.56 75.72 127.61 74.96 127.81C74.19 128.01 73.27 128.08 72.43 128.2C71.58 128.33 70.74 128.44 69.89 128.54C69.04 128.65 68.2 128.74 67.35 128.83C66.5 128.91 65.66 128.99 64.81 129.06C63.96 129.13 63.12 129.19 62.27 129.24C61.43 129.29 60.59 129.34 59.75 129.37C58.91 129.41 58.07 129.44 57.23 129.46C56.4 129.48 55.56 129.49 54.73 129.5C53.9 129.51 53.08 129.51 52.25 129.5C51.42 129.49 50.6 129.48 49.78 129.46C48.95 129.45 48.13 129.42 47.31 129.4C46.49 129.37 45.67 129.33 44.85 129.29C44.04 129.25 43.22 129.21 42.4 129.16C41.58 129.11 40.77 129.06 39.95 129C39.14 128.95 38.32 128.88 37.5 128.82C36.69 128.75 35.87 128.68 35.05 128.61C34.23 128.54 33.42 128.46 32.59 128.39C31.77 128.31 30.95 128.22 30.13 128.14C29.31 128.06 28.48 127.97 27.65 127.88C26.83 127.8 25.74 127.92 25.16 127.62C24.58 127.31 24.32 126.74 24.18 126.07C24.04 125.39 24.28 124.41 24.32 123.58C24.37 122.75 24.41 121.91 24.45 121.08C24.49 120.25 24.53 119.42 24.56 118.59C24.59 117.76 24.62 116.92 24.64 116.09C24.66 115.26 24.68 114.42 24.69 113.59C24.69 112.76 24.7 111.93 24.69 111.1C24.69 110.27 24.67 109.45 24.66 108.62C24.64 107.8 24.62 106.98 24.59 106.16C24.57 105.35 24.54 104.53 24.51 103.71C24.48 102.9 24.45 102.08 24.41 101.27C24.38 100.45 24.34 99.64 24.31 98.83C24.28 98.01 24.24 97.2 24.21 96.38C24.18 95.57 24.15 94.75 24.12 93.93C24.1 93.12 24.07 92.3 24.05 91.48C24.04 90.65 24.02 89.83 24.01 89C24 88.18 24 87.35 24.01 86.52C24.01 85.69 24.02 84.85 24.04 84.03C24.05 83.2 24.06 82.38 24.08 81.57C24.09 80.76 24.11 79.95 24.13 79.14C24.14 78.34 24.16 77.54 24.18 76.74C24.2 75.94 24.22 75.15 24.24 74.35C24.26 73.56 24.28 72.77 24.3 71.97C24.33 71.18 24.35 70.39 24.37 69.59C24.39 68.8 24.41 68.01 24.43 67.21C24.45 66.41 24.47 65.61 24.48 64.81C24.5 64 24.52 63.19 24.53 62.38C24.55 61.57 24.56 60.75 24.57 59.93C24.59 59.1 24.59 58.27 24.6 57.43C24.62 56.59 24.63 55.75 24.64 54.89C24.65 54.04 24.67 53.17 24.69 52.3C24.7 51.44 24.72 50.56 24.74 49.68C24.76 48.81 24.78 47.92 24.8 47.04C24.82 46.15 24.84 45.26 24.86 44.38C24.88 43.49 25.25 42.28 24.92 41.71C24.6 41.14 23.66 41.12 22.9 40.96C22.14 40.8 21.22 40.81 20.37 40.76C19.53 40.7 18.68 40.67 17.83 40.65C16.99 40.64 16.14 40.64 15.29 40.65C14.44 40.66 13.6 40.69 12.75 40.73C11.91 40.77 11.07 40.83 10.23 40.89C9.39 40.96 8.55 41.04 7.72 41.12C6.88 41.21 6.05 41.31 5.23 41.42C4.4 41.52 3.36 41.94 2.76 41.76C2.15 41.57 1.84 41.01 1.62 40.32C1.4 39.62 1.5 38.5 1.45 37.6C1.39 36.7 1.34 35.8 1.29 34.91C1.25 34.02 1.21 33.14 1.17 32.26C1.14 31.39 1.11 30.52 1.1 29.67C1.08 28.82 1.08 27.98 1.08 27.15C1.08 26.31 1.08 25.49 1.08 24.68C1.09 23.86 1.09 23.06 1.09 22.25C1.1 21.45 1.1 20.65 1.11 19.86C1.11 19.06 1.12 18.27 1.12 17.49C1.13 16.7 1.13 15.91 1.14 15.13C1.14 14.34 1.15 13.56 1.16 12.77C1.16 11.99 1.17 11.2 1.17 10.42C1.18 9.63 1.18 8.84 1.19 8.04C1.19 7.25 1.2 6.45 1.2 5.65C1.21 4.84 0.79 3.67 1.21 3.22ZM89.34 25.15a0.74 0.79 0 1 0 1.48 0a0.74 0.79 0 1 0 -1.48 0ZM35.36 22.39a0.48 0.29 0 1 0 0.96 0a0.48 0.29 0 1 0 -0.96 0ZM73.41 64.47a0.83 0.66 0 1 0 1.66 0a0.83 0.66 0 1 0 -1.66 0ZM25.48 89.71a0.46 0.39 0 1 0 0.92 0a0.46 0.39 0 1 0 -0.92 0ZM4.08 35.16a0.49 0.35 0 1 0 0.98 0a0.49 0.35 0 1 0 -0.98 0ZM72.05 71.62a0.69 0.91 0 1 0 1.37 0a0.69 0.91 0 1 0 -1.37 0ZM13.95 5.26a0.61 0.58 0 1 0 1.23 0a0.61 0.58 0 1 0 -1.23 0ZM49.06 37.77a0.53 0.45 0 1 0 1.06 0a0.53 0.45 0 1 0 -1.06 0ZM26.7 74.83a0.83 0.82 0 1 0 1.66 0a0.83 0.82 0 1 0 -1.66 0ZM26.48 65.47a0.43 0.56 0 1 0 0.87 0a0.43 0.56 0 1 0 -0.87 0ZM23.1 29.15a0.91 0.85 0 1 0 1.82 0a0.91 0.85 0 1 0 -1.82 0ZM38.58 36.32a0.53 0.58 0 1 0 1.07 0a0.53 0.58 0 1 0 -1.07 0ZM57.4 33.99a0.84 0.93 0 1 0 1.67 0a0.84 0.93 0 1 0 -1.67 0ZM66.21 62.13a0.63 0.81 0 1 0 1.26 0a0.63 0.81 0 1 0 -1.26 0ZM29.61 43.26a1.01 1.25 0 1 0 2.01 0a1.01 1.25 0 1 0 -2.01 0ZM51.25 100.42a0.42 0.54 0 1 0 0.84 0a0.42 0.54 0 1 0 -0.84 0ZM32.11 126.07a0.52 0.68 0 1 0 1.04 0a0.52 0.68 0 1 0 -1.04 0ZM40.37 120.56a0.76 0.99 0 1 0 1.52 0a0.76 0.99 0 1 0 -1.52 0ZM32.12 74.47a0.85 0.67 0 1 0 1.69 0a0.85 0.67 0 1 0 -1.69 0ZM35.73 18.03a0.97 1.26 0 1 0 1.93 0a0.97 1.26 0 1 0 -1.93 0ZM27.65 31.43a0.31 0.44 0 1 0 0.62 0a0.31 0.44 0 1 0 -0.62 0ZM70.52 82.68a0.92 0.96 0 1 0 1.84 0a0.92 0.96 0 1 0 -1.84 0ZM25.54 98.08a0.51 0.62 0 1 0 1.02 0a0.51 0.62 0 1 0 -1.02 0ZM45.24 61.18a0.52 0.62 0 1 0 1.04 0a0.52 0.62 0 1 0 -1.04 0Z"/><path fill="#3f74b5" fill-rule="evenodd" transform="translate(4.68 21.40) scale(0.44) translate(106 0) rotate(0.5 50 65)" d="M2.85 1.04C3.27 0.62 4.48 1.06 5.29 1.08C6.09 1.1 6.89 1.14 7.69 1.18C8.49 1.21 9.28 1.26 10.06 1.31C10.85 1.36 11.64 1.41 12.42 1.47C13.21 1.53 13.99 1.59 14.77 1.64C15.55 1.7 16.34 1.76 17.12 1.81C17.91 1.87 18.69 1.92 19.48 1.97C20.27 2.02 21.06 2.07 21.86 2.1C22.66 2.14 23.46 2.17 24.27 2.19C25.07 2.21 25.89 2.22 26.71 2.22C27.53 2.23 28.37 2.21 29.2 2.2C30.03 2.19 30.87 2.17 31.7 2.16C32.53 2.14 33.37 2.13 34.2 2.12C35.04 2.11 35.87 2.1 36.7 2.08C37.54 2.07 38.37 2.06 39.2 2.05C40.04 2.04 40.87 2.03 41.71 2.02C42.54 2.01 43.38 1.99 44.21 1.98C45.04 1.97 45.88 1.96 46.71 1.95C47.54 1.94 48.38 1.93 49.21 1.91C50.05 1.9 50.88 1.89 51.71 1.88C52.55 1.87 53.38 1.85 54.21 1.84C55.05 1.83 55.88 1.81 56.72 1.8C57.55 1.79 58.38 1.77 59.21 1.76C60.04 1.75 60.86 1.72 61.69 1.72C62.51 1.72 63.33 1.73 64.16 1.75C64.98 1.77 65.8 1.81 66.61 1.86C67.43 1.92 68.25 1.98 69.07 2.07C69.88 2.15 70.69 2.25 71.51 2.37C72.32 2.49 73.13 2.63 73.94 2.78C74.74 2.94 75.55 3.11 76.35 3.31C77.15 3.51 77.95 3.73 78.74 3.97C79.54 4.21 80.33 4.48 81.11 4.77C81.89 5.06 82.67 5.37 83.43 5.72C84.2 6.06 84.95 6.43 85.69 6.83C86.44 7.23 87.17 7.65 87.88 8.11C88.58 8.56 89.28 9.04 89.94 9.54C90.6 10.05 91.24 10.58 91.84 11.14C92.45 11.7 93.02 12.29 93.55 12.89C94.09 13.5 94.59 14.13 95.05 14.78C95.5 15.43 95.92 16.11 96.31 16.79C96.69 17.48 97.03 18.19 97.34 18.91C97.65 19.63 97.92 20.37 98.16 21.12C98.4 21.86 98.61 22.63 98.79 23.4C98.97 24.18 99.12 24.96 99.25 25.76C99.37 26.56 99.47 27.38 99.55 28.2C99.63 29.02 99.68 29.85 99.72 30.69C99.76 31.52 99.77 32.36 99.76 33.21C99.76 34.05 99.74 34.9 99.69 35.75C99.65 36.6 99.6 37.45 99.51 38.3C99.43 39.14 99.34 39.99 99.21 40.84C99.09 41.68 98.94 42.52 98.77 43.34C98.6 44.17 98.41 44.99 98.18 45.8C97.96 46.61 97.71 47.41 97.42 48.19C97.14 48.96 96.83 49.73 96.49 50.48C96.15 51.22 95.78 51.95 95.38 52.65C94.98 53.36 94.54 54.05 94.08 54.71C93.62 55.38 93.13 56.02 92.62 56.64C92.1 57.27 91.56 57.87 90.99 58.44C90.42 59.02 89.83 59.57 89.21 60.1C88.6 60.63 87.96 61.14 87.3 61.62C86.65 62.1 85.92 62.56 85.28 63C84.64 63.43 83.39 63.84 83.48 64.21C83.57 64.59 85.04 64.86 85.8 65.26C86.56 65.65 87.32 66.1 88.04 66.59C88.76 67.07 89.46 67.61 90.13 68.18C90.8 68.74 91.45 69.35 92.06 69.99C92.66 70.62 93.24 71.29 93.78 71.98C94.32 72.67 94.82 73.38 95.28 74.11C95.75 74.84 96.17 75.59 96.57 76.35C96.96 77.11 97.32 77.88 97.64 78.66C97.97 79.45 98.25 80.24 98.52 81.04C98.78 81.84 99.01 82.65 99.22 83.46C99.42 84.27 99.59 85.09 99.75 85.91C99.91 86.74 100.05 87.56 100.18 88.39C100.3 89.22 100.41 90.06 100.51 90.89C100.61 91.72 100.69 92.55 100.76 93.39C100.82 94.22 100.88 95.05 100.92 95.89C100.96 96.72 100.98 97.55 100.99 98.38C101 99.22 101 100.05 100.99 100.88C100.98 101.71 100.96 102.54 100.91 103.37C100.86 104.2 100.8 105.03 100.71 105.85C100.61 106.68 100.5 107.5 100.35 108.32C100.2 109.14 100.03 109.95 99.82 110.75C99.6 111.56 99.36 112.36 99.07 113.14C98.79 113.92 98.47 114.69 98.11 115.44C97.74 116.19 97.35 116.92 96.9 117.62C96.46 118.33 95.98 119.01 95.46 119.65C94.94 120.3 94.38 120.92 93.78 121.5C93.18 122.08 92.54 122.63 91.88 123.15C91.21 123.66 90.51 124.13 89.79 124.57C89.07 125.01 88.32 125.41 87.56 125.78C86.8 126.15 86.01 126.48 85.22 126.78C84.43 127.08 83.62 127.34 82.81 127.57C82 127.81 81.18 128.01 80.36 128.19C79.53 128.38 78.7 128.53 77.87 128.67C77.04 128.8 76.2 128.92 75.37 129.02C74.53 129.11 73.69 129.19 72.86 129.26C72.02 129.33 71.18 129.38 70.34 129.42C69.5 129.46 68.66 129.48 67.82 129.5C66.98 129.52 66.14 129.53 65.31 129.53C64.47 129.53 63.63 129.53 62.79 129.51C61.96 129.5 61.12 129.46 60.29 129.44C59.45 129.42 58.62 129.4 57.78 129.38C56.95 129.36 56.11 129.35 55.28 129.34C54.44 129.33 53.59 129.31 52.75 129.3C51.9 129.29 51.06 129.28 50.21 129.27C49.36 129.26 48.51 129.25 47.66 129.25C46.8 129.24 45.95 129.23 45.1 129.22C44.24 129.22 43.39 129.21 42.53 129.2C41.68 129.2 40.83 129.19 39.97 129.18C39.12 129.18 38.27 129.17 37.42 129.16C36.57 129.16 35.72 129.15 34.87 129.14C34.02 129.13 33.18 129.12 32.34 129.12C31.49 129.11 30.65 129.1 29.82 129.08C28.98 129.07 28.15 129.06 27.32 129.05C26.49 129.04 25.66 129.04 24.83 129.05C24.01 129.05 23.18 129.06 22.36 129.07C21.54 129.09 20.72 129.11 19.9 129.13C19.08 129.14 18.26 129.17 17.44 129.19C16.62 129.21 15.81 129.24 14.99 129.27C14.17 129.29 13.35 129.32 12.54 129.34C11.72 129.36 10.9 129.39 10.08 129.41C9.26 129.43 8.45 129.45 7.62 129.46C6.8 129.48 5.98 129.49 5.16 129.5C4.34 129.5 3.15 129.86 2.68 129.5C2.21 129.15 2.36 128.19 2.33 127.39C2.31 126.6 2.46 125.63 2.52 124.75C2.58 123.87 2.64 122.99 2.69 122.12C2.74 121.25 2.79 120.38 2.83 119.51C2.87 118.65 2.9 117.79 2.92 116.94C2.94 116.09 2.96 115.25 2.96 114.41C2.96 113.58 2.95 112.75 2.93 111.92C2.91 111.08 2.88 110.25 2.84 109.42C2.8 108.59 2.75 107.77 2.69 106.94C2.64 106.11 2.58 105.28 2.51 104.45C2.45 103.62 2.38 102.8 2.31 101.97C2.24 101.14 2.16 100.32 2.09 99.49C2.02 98.66 1.95 97.84 1.88 97.01C1.81 96.18 1.74 95.35 1.68 94.53C1.62 93.7 1.56 92.87 1.51 92.04C1.46 91.21 1.42 90.38 1.39 89.55C1.35 88.72 1.33 87.89 1.32 87.06C1.3 86.23 1.31 85.39 1.31 84.56C1.3 83.72 1.3 82.88 1.3 82.03C1.3 81.19 1.3 80.34 1.29 79.49C1.29 78.63 1.29 77.78 1.28 76.92C1.28 76.07 1.27 75.21 1.27 74.35C1.26 73.49 1.26 72.63 1.25 71.77C1.25 70.91 1.24 70.05 1.24 69.2C1.23 68.34 1.23 67.48 1.22 66.62C1.22 65.76 1.21 64.91 1.21 64.05C1.21 63.2 1.2 62.35 1.2 61.5C1.2 60.65 1.2 59.81 1.19 58.97C1.19 58.12 1.19 57.29 1.19 56.45C1.19 55.62 1.19 54.79 1.2 53.96C1.2 53.14 1.2 52.31 1.21 51.49C1.21 50.67 1.22 49.85 1.22 49.03C1.23 48.21 1.23 47.4 1.24 46.58C1.25 45.76 1.25 44.95 1.26 44.14C1.27 43.32 1.28 42.51 1.28 41.69C1.29 40.88 1.3 40.06 1.3 39.25C1.31 38.43 1.32 37.62 1.32 36.8C1.33 35.98 1.34 35.17 1.34 34.34C1.35 33.52 1.35 32.7 1.35 31.88C1.36 31.05 1.36 30.22 1.36 29.39C1.36 28.56 1.36 27.73 1.37 26.89C1.39 26.04 1.41 25.2 1.44 24.35C1.47 23.49 1.52 22.64 1.56 21.78C1.61 20.92 1.66 20.05 1.72 19.19C1.77 18.32 1.84 17.45 1.9 16.58C1.96 15.71 2.03 14.84 2.1 13.97C2.16 13.1 2.23 12.23 2.29 11.36C2.36 10.49 2.42 9.62 2.48 8.75C2.54 7.88 2.59 7.02 2.64 6.16C2.69 5.3 2.73 4.44 2.77 3.58C2.8 2.73 2.43 1.45 2.85 1.04ZM46.09 30.18C46.52 29.77 47.79 30.25 48.63 30.28C49.48 30.32 50.32 30.35 51.17 30.37C52.01 30.4 52.86 30.42 53.7 30.44C54.55 30.46 55.39 30.46 56.24 30.47C57.08 30.48 57.93 30.41 58.77 30.49C59.61 30.57 60.49 30.65 61.27 30.93C62.06 31.2 62.86 31.62 63.49 32.15C64.11 32.69 64.64 33.41 65.03 34.14C65.43 34.87 65.67 35.7 65.86 36.51C66.06 37.31 66.14 38.16 66.2 38.99C66.27 39.82 66.27 40.66 66.23 41.5C66.2 42.34 66.13 43.18 65.97 44.01C65.81 44.83 65.61 45.68 65.27 46.44C64.93 47.19 64.48 47.97 63.92 48.56C63.36 49.15 62.63 49.65 61.89 49.98C61.16 50.31 60.32 50.46 59.5 50.56C58.68 50.67 57.83 50.6 56.98 50.61C56.14 50.62 55.28 50.61 54.42 50.61C53.56 50.61 52.69 50.61 51.82 50.61C50.95 50.61 50.07 50.61 49.19 50.61C48.31 50.61 47.03 51 46.54 50.61C46.06 50.22 46.32 49.09 46.27 48.27C46.22 47.45 46.25 46.54 46.24 45.68C46.23 44.81 46.22 43.94 46.21 43.08C46.2 42.21 46.19 41.35 46.18 40.48C46.17 39.62 46.16 38.75 46.15 37.89C46.14 37.02 46.13 36.16 46.12 35.3C46.12 34.44 46.11 33.59 46.1 32.73C46.1 31.88 45.67 30.59 46.09 30.18ZM46.6 81.89C47.02 81.5 48.29 82 49.14 82.04C49.98 82.08 50.82 82.13 51.67 82.16C52.51 82.2 53.36 82.23 54.2 82.25C55.05 82.28 55.89 82.29 56.74 82.3C57.58 82.31 58.43 82.3 59.27 82.3C60.11 82.3 60.96 82.24 61.79 82.31C62.62 82.39 63.46 82.5 64.25 82.75C65.03 83 65.81 83.35 66.48 83.81C67.15 84.27 67.77 84.86 68.28 85.5C68.79 86.14 69.19 86.89 69.52 87.64C69.84 88.4 70.07 89.21 70.23 90.02C70.39 90.83 70.47 91.67 70.5 92.5C70.53 93.32 70.5 94.17 70.4 94.98C70.29 95.8 70.13 96.63 69.87 97.4C69.6 98.17 69.26 98.95 68.81 99.62C68.36 100.3 67.8 100.94 67.17 101.45C66.53 101.96 65.78 102.38 65.01 102.69C64.24 103 63.38 103.18 62.55 103.3C61.71 103.42 60.85 103.4 60 103.41C59.15 103.43 58.3 103.4 57.46 103.4C56.61 103.4 55.77 103.4 54.92 103.41C54.08 103.42 53.23 103.43 52.39 103.45C51.54 103.46 50.7 103.48 49.86 103.5C49.01 103.52 47.88 103.83 47.32 103.56C46.77 103.3 46.65 102.6 46.51 101.91C46.38 101.22 46.53 100.25 46.54 99.42C46.54 98.59 46.55 97.77 46.56 96.94C46.56 96.11 46.57 95.28 46.58 94.45C46.58 93.62 46.59 92.78 46.6 91.95C46.6 91.12 46.6 90.28 46.61 89.44C46.61 88.61 46.61 87.77 46.62 86.93C46.62 86.08 46.62 85.23 46.62 84.4C46.61 83.56 46.18 82.29 46.6 81.89ZM34.43 101.23a1.06 0.88 0 1 0 2.13 0a1.06 0.88 0 1 0 -2.13 0ZM25.07 65.14a0.47 0.4 0 1 0 0.95 0a0.47 0.4 0 1 0 -0.95 0ZM66.12 81.64a0.49 0.61 0 1 0 0.98 0a0.49 0.61 0 1 0 -0.98 0ZM53.83 58.94a0.68 0.64 0 1 0 1.36 0a0.68 0.64 0 1 0 -1.36 0ZM54.16 68.19a0.71 0.49 0 1 0 1.43 0a0.71 0.49 0 1 0 -1.43 0ZM85.64 91.09a0.42 0.24 0 1 0 0.84 0a0.42 0.24 0 1 0 -0.84 0ZM13.5 106.05a0.87 1.06 0 1 0 1.74 0a0.87 1.06 0 1 0 -1.74 0ZM15.67 9.92a0.98 1.04 0 1 0 1.97 0a0.98 1.04 0 1 0 -1.97 0ZM34.44 115.64a0.58 0.61 0 1 0 1.16 0a0.58 0.61 0 1 0 -1.16 0ZM2.12 81.47a0.32 0.21 0 1 0 0.64 0a0.32 0.21 0 1 0 -0.64 0ZM27.4 99.35a0.48 0.58 0 1 0 0.97 0a0.48 0.58 0 1 0 -0.97 0ZM92.87 101.65a0.93 0.77 0 1 0 1.87 0a0.93 0.77 0 1 0 -1.87 0ZM29.29 119.62a0.44 0.47 0 1 0 0.87 0a0.44 0.47 0 1 0 -0.87 0ZM8.99 40.12a0.44 0.58 0 1 0 0.88 0a0.44 0.58 0 1 0 -0.88 0ZM35.98 16.48a0.47 0.31 0 1 0 0.95 0a0.47 0.31 0 1 0 -0.95 0ZM63.77 116.45a0.66 0.62 0 1 0 1.31 0a0.66 0.62 0 1 0 -1.31 0ZM22.97 120.68a0.33 0.24 0 1 0 0.66 0a0.33 0.24 0 1 0 -0.66 0ZM87.92 99.2a0.34 0.48 0 1 0 0.68 0a0.34 0.48 0 1 0 -0.68 0ZM36.26 76.12a0.31 0.18 0 1 0 0.61 0a0.31 0.18 0 1 0 -0.61 0ZM10.7 122.08a0.61 0.57 0 1 0 1.22 0a0.61 0.57 0 1 0 -1.22 0ZM79.51 85.35a0.31 0.39 0 1 0 0.62 0a0.31 0.39 0 1 0 -0.62 0ZM95.84 113.69a0.72 0.66 0 1 0 1.43 0a0.72 0.66 0 1 0 -1.43 0ZM56.57 116.65a0.72 0.47 0 1 0 1.43 0a0.72 0.47 0 1 0 -1.43 0ZM44.61 89.7a0.51 0.34 0 1 0 1.03 0a0.51 0.34 0 1 0 -1.03 0Z"/></svg>